<svg width="20" height="20" viewBox="0 0 20 20" fill="none" xmlns="http://www.w3.org/2000/svg">
<rect width="20" height="20" rx="4" fill="#D9D9D9"/>
<rect width="20" height="20" rx="4" fill="url(#paint0_radial_4_222)"/>
<path d="M10 4.40398C11.8221 4.40398 12.0381 4.40998 12.7581 4.44398C13.4241 4.47398 13.7861 4.58598 14.0261 4.67998C14.3441 4.80398 14.5721 4.95198 14.8101 5.18998C15.0481 5.42798 15.1961 5.65598 15.3201 5.97398C15.4141 6.21398 15.5241 6.57598 15.5561 7.24198C15.5881 7.96198 15.5961 8.17798 15.5961 9.99998C15.5961 11.822 15.5901 12.038 15.5561 12.758C15.5261 13.424 15.4141 13.786 15.3201 14.026C15.1961 14.344 15.0481 14.572 14.8101 14.81C14.5721 15.048 14.3441 15.196 14.0261 15.32C13.7861 15.414 13.4241 15.524 12.7581 15.556C12.0381 15.588 11.8221 15.596 10 15.596C8.17805 15.596 7.96205 15.59 7.24205 15.556C6.57604 15.526 6.21404 15.414 5.97404 15.32C5.65604 15.196 5.42804 15.048 5.19004 14.81C4.95204 14.572 4.80404 14.344 4.68004 14.026C4.58604 13.786 4.47604 13.424 4.44404 12.758C4.41204 12.038 4.40404 11.822 4.40404 9.99998C4.40404 8.17798 4.41004 7.96198 4.44404 7.24198C4.47404 6.57598 4.58604 6.21398 4.68004 5.97398C4.80404 5.65598 4.95204 5.42798 5.19004 5.18998C5.42804 4.95198 5.65604 4.80398 5.97404 4.67998C6.21404 4.58598 6.57604 4.47598 7.24205 4.44398C7.96205 4.40998 8.17805 4.40398 10 4.40398ZM10 3.17398C8.14605 3.17398 7.91405 3.18198 7.18604 3.21598C6.46004 3.24998 5.96404 3.36398 5.52804 3.53398C5.08004 3.70598 4.69804 3.93998 4.32004 4.31998C3.94004 4.69998 3.70804 5.07998 3.53204 5.52998C3.36404 5.96398 3.24804 6.45998 3.21404 7.18798C3.18004 7.91598 3.17204 8.14798 3.17204 10.002C3.17204 11.856 3.18004 12.088 3.21404 12.816C3.24804 13.542 3.36204 14.038 3.53204 14.474C3.70604 14.92 3.94004 15.302 4.32004 15.68C4.70004 16.06 5.08004 16.292 5.53004 16.468C5.96404 16.636 6.46004 16.752 7.18804 16.786C7.91605 16.82 8.14805 16.828 10.002 16.828C11.8561 16.828 12.0881 16.82 12.8161 16.786C13.5421 16.752 14.0381 16.638 14.4741 16.468C14.9201 16.294 15.3021 16.06 15.6801 15.68C16.0601 15.3 16.2921 14.92 16.4681 14.47C16.6361 14.036 16.7521 13.54 16.7861 12.812C16.8201 12.084 16.8281 11.852 16.8281 9.99798C16.8281 8.14398 16.8201 7.91198 16.7861 7.18398C16.7521 6.45798 16.6381 5.96198 16.4681 5.52598C16.2941 5.07998 16.0601 4.69798 15.6801 4.31998C15.3001 3.93998 14.9201 3.70798 14.4701 3.53198C14.0361 3.36398 13.5401 3.24798 12.8121 3.21398C12.0861 3.18198 11.8541 3.17398 10 3.17398Z" fill="white"/>
<path d="M10 6.49399C8.06404 6.49399 6.49404 8.06399 6.49404 9.99999C6.49404 11.936 8.06404 13.506 10 13.506C11.936 13.506 13.506 11.936 13.506 9.99999C13.506 8.06399 11.936 6.49399 10 6.49399ZM10 12.276C8.74404 12.276 7.72404 11.258 7.72404 9.99999C7.72404 8.74199 8.74404 7.72399 10 7.72399C11.256 7.72399 12.276 8.74199 12.276 9.99999C12.276 11.258 11.256 12.276 10 12.276Z" fill="white"/>
<path d="M13.644 7.17598C14.0969 7.17598 14.464 6.80885 14.464 6.35598C14.464 5.90311 14.0969 5.53598 13.644 5.53598C13.1912 5.53598 12.824 5.90311 12.824 6.35598C12.824 6.80885 13.1912 7.17598 13.644 7.17598Z" fill="white"/>
<defs>
<radialGradient id="paint0_radial_4_222" cx="0" cy="0" r="1" gradientUnits="userSpaceOnUse" gradientTransform="translate(2.98611 20.0694) scale(25.555)">
<stop stop-color="#FFB140"/>
<stop offset="0.2559" stop-color="#FF5445"/>
<stop offset="0.599" stop-color="#FC2B82"/>
<stop offset="1" stop-color="#8E40B7"/>
</radialGradient>
</defs>
</svg>
