<svg width="40" height="40" viewBox="0 0 40 40" fill="none" xmlns="http://www.w3.org/2000/svg">
<path d="M20 40C8.956 40 0 31.044 0 20C0 8.956 8.956 0 20 0C31.044 0 40 8.956 40 20C40 31.044 31.044 40 20 40Z" fill="url(#paint0_radial_4_278)"/>
<path d="M20.0001 8.80802C23.6441 8.80802 24.0761 8.82002 25.5161 8.88802C26.8481 8.94802 27.5721 9.17202 28.0521 9.36002C28.6881 9.60802 29.1441 9.90402 29.6201 10.38C30.0961 10.856 30.3921 11.312 30.6401 11.948C30.8281 12.428 31.0481 13.152 31.1121 14.484C31.1761 15.924 31.1921 16.356 31.1921 20C31.1921 23.644 31.1801 24.076 31.1121 25.516C31.0521 26.848 30.8281 27.572 30.6401 28.052C30.3921 28.688 30.0961 29.144 29.6201 29.62C29.1441 30.096 28.6881 30.392 28.0521 30.64C27.5721 30.828 26.8481 31.048 25.5161 31.112C24.0761 31.176 23.6441 31.192 20.0001 31.192C16.3561 31.192 15.9241 31.18 14.4841 31.112C13.1521 31.052 12.4281 30.828 11.9481 30.64C11.3121 30.392 10.8561 30.096 10.3801 29.62C9.90408 29.144 9.60808 28.688 9.36008 28.052C9.17208 27.572 8.95208 26.848 8.88808 25.516C8.82408 24.076 8.80808 23.644 8.80808 20C8.80808 16.356 8.82008 15.924 8.88808 14.484C8.94808 13.152 9.17208 12.428 9.36008 11.948C9.60808 11.312 9.90408 10.856 10.3801 10.38C10.8561 9.90402 11.3121 9.60802 11.9481 9.36002C12.4281 9.17202 13.1521 8.95202 14.4841 8.88802C15.9241 8.82002 16.3561 8.80802 20.0001 8.80802ZM20.0001 6.34802C16.2921 6.34802 15.8281 6.36402 14.3721 6.43202C12.9201 6.50002 11.9281 6.72802 11.0561 7.06802C10.1601 7.41202 9.39608 7.88002 8.64008 8.64002C7.88008 9.40002 7.41608 10.16 7.06408 11.06C6.72808 11.928 6.49608 12.92 6.42808 14.376C6.36008 15.832 6.34408 16.296 6.34408 20.004C6.34408 23.712 6.36008 24.176 6.42808 25.632C6.49608 27.084 6.72408 28.076 7.06408 28.948C7.41208 29.84 7.88008 30.604 8.64008 31.36C9.40008 32.12 10.1601 32.584 11.0601 32.936C11.9281 33.272 12.9201 33.504 14.3761 33.572C15.8321 33.64 16.2961 33.656 20.0041 33.656C23.7121 33.656 24.1761 33.64 25.6321 33.572C27.0841 33.504 28.0761 33.276 28.9481 32.936C29.8401 32.588 30.6041 32.12 31.3601 31.36C32.1201 30.6 32.5841 29.84 32.9361 28.94C33.2721 28.072 33.5041 27.08 33.5721 25.624C33.6401 24.168 33.6561 23.704 33.6561 19.996C33.6561 16.288 33.6401 15.824 33.5721 14.368C33.5041 12.916 33.2761 11.924 32.9361 11.052C32.5881 10.16 32.1201 9.39602 31.3601 8.64002C30.6001 7.88002 29.8401 7.41602 28.9401 7.06402C28.0721 6.72802 27.0801 6.49602 25.6241 6.42802C24.1721 6.36402 23.7081 6.34802 20.0001 6.34802Z" fill="white"/>
<path d="M20.0001 12.988C16.1281 12.988 12.9881 16.128 12.9881 20C12.9881 23.872 16.1281 27.012 20.0001 27.012C23.8721 27.012 27.0121 23.872 27.0121 20C27.0121 16.128 23.8721 12.988 20.0001 12.988ZM20.0001 24.552C17.4881 24.552 15.4481 22.516 15.4481 20C15.4481 17.484 17.4881 15.448 20.0001 15.448C22.5121 15.448 24.5521 17.484 24.5521 20C24.5521 22.516 22.5121 24.552 20.0001 24.552Z" fill="white"/>
<path d="M27.2881 14.352C28.1938 14.352 28.9281 13.6178 28.9281 12.712C28.9281 11.8063 28.1938 11.072 27.2881 11.072C26.3823 11.072 25.6481 11.8063 25.6481 12.712C25.6481 13.6178 26.3823 14.352 27.2881 14.352Z" fill="white"/>
<defs>
<radialGradient id="paint0_radial_4_278" cx="0" cy="0" r="1" gradientUnits="userSpaceOnUse" gradientTransform="translate(5.97222 40.1389) scale(51.11)">
<stop stop-color="#FFB140"/>
<stop offset="0.2559" stop-color="#FF5445"/>
<stop offset="0.599" stop-color="#FC2B82"/>
<stop offset="1" stop-color="#8E40B7"/>
</radialGradient>
</defs>
</svg>
