<svg width="16" height="19" viewBox="0 0 16 19" fill="none" xmlns="http://www.w3.org/2000/svg">
<path d="M8.00222 9.2625C8.48407 9.2625 8.89583 9.0995 9.2375 8.77351C9.57917 8.44753 9.75 8.05566 9.75 7.59789C9.75 7.14013 9.57843 6.74896 9.23528 6.42438C8.89214 6.09979 8.47964 5.9375 7.99778 5.9375C7.51593 5.9375 7.10417 6.1005 6.7625 6.42649C6.42083 6.75247 6.25 7.14434 6.25 7.60211C6.25 8.05987 6.42158 8.45104 6.76472 8.77563C7.10786 9.10021 7.52036 9.2625 8.00222 9.2625ZM8 17.1238C10.2167 15.2079 11.8542 13.4702 12.9125 11.9106C13.9708 10.351 14.5 8.9775 14.5 7.79C14.5 5.92499 13.8726 4.39791 12.6177 3.20874C11.3629 2.01958 9.82362 1.425 8 1.425C6.17638 1.425 4.63715 2.01958 3.3823 3.20874C2.12743 4.39791 1.5 5.92499 1.5 7.79C1.5 8.9775 2.04167 10.351 3.125 11.9106C4.20833 13.4702 5.83333 15.2079 8 17.1238ZM8 19C5.31667 16.8308 3.3125 14.816 1.9875 12.9556C0.6625 11.0952 0 9.37333 0 7.79C0 5.415 0.804167 3.52292 2.4125 2.11375C4.02083 0.704583 5.88333 0 8 0C10.1167 0 11.9792 0.704583 13.5875 2.11375C15.1958 3.52292 16 5.415 16 7.79C16 9.37333 15.3375 11.0952 14.0125 12.9556C12.6875 14.816 10.6833 16.8308 8 19Z" fill="black"/>
</svg>
