<svg width="45" height="45" viewBox="0 0 45 45" fill="none" xmlns="http://www.w3.org/2000/svg">
<g clip-path="url(#clip0_4_177)">
<path d="M22.5 45C34.9264 45 45 34.9264 45 22.5C45 10.0736 34.9264 0 22.5 0C10.0736 0 0 10.0736 0 22.5C0 34.9264 10.0736 45 22.5 45Z" fill="#014AE7"/>
<path d="M22.5 40.7812C32.5965 40.7812 40.7812 32.5965 40.7812 22.5C40.7812 12.4035 32.5965 4.21875 22.5 4.21875C12.4035 4.21875 4.21875 12.4035 4.21875 22.5C4.21875 32.5965 12.4035 40.7812 22.5 40.7812Z" stroke="#FEFFFE" stroke-width="2"/>
<path d="M11.85 28.6875C11.85 28.4188 11.9 28.1828 12 27.9797C12.1031 27.7766 12.2422 27.6203 12.4172 27.5109C12.5922 27.4016 12.7875 27.3469 13.0031 27.3469C13.1875 27.3469 13.3485 27.3844 13.4859 27.4594C13.6266 27.5344 13.7344 27.6328 13.8094 27.7547V27.3844H14.6109V30H13.8094V29.6297C13.7312 29.7516 13.6219 29.85 13.4812 29.925C13.3438 30 13.1828 30.0375 12.9984 30.0375C12.786 30.0375 12.5922 29.9828 12.4172 29.8734C12.2422 29.7609 12.1031 29.6031 12 29.4C11.9 29.1938 11.85 28.9562 11.85 28.6875ZM13.8094 28.6922C13.8094 28.4922 13.7531 28.3344 13.6406 28.2188C13.5313 28.1031 13.3969 28.0453 13.2375 28.0453C13.0781 28.0453 12.9422 28.1031 12.8297 28.2188C12.7203 28.3312 12.6656 28.4875 12.6656 28.6875C12.6656 28.8875 12.7203 29.0469 12.8297 29.1656C12.9422 29.2813 13.0781 29.3391 13.2375 29.3391C13.3969 29.3391 13.5313 29.2813 13.6406 29.1656C13.7531 29.05 13.8094 28.8922 13.8094 28.6922ZM15.9924 26.5312V30H15.1908V26.5312H15.9924ZM19.1561 27.3844V30H18.3545V29.6438C18.2733 29.7594 18.1623 29.8531 18.0217 29.925C17.8842 29.9938 17.7311 30.0281 17.5623 30.0281C17.3624 30.0281 17.1858 29.9844 17.0326 29.8969C16.8795 29.8063 16.7608 29.6766 16.6764 29.5078C16.592 29.3391 16.5498 29.1406 16.5498 28.9125V27.3844H17.3467V28.8047C17.3467 28.9797 17.392 29.1156 17.4826 29.2125C17.5733 29.3094 17.6952 29.3578 17.8483 29.3578C18.0045 29.3578 18.128 29.3094 18.2186 29.2125C18.3092 29.1156 18.3545 28.9797 18.3545 28.8047V27.3844H19.1561ZM23.0693 27.3562C23.3943 27.3562 23.6521 27.4547 23.8428 27.6516C24.0365 27.8484 24.1334 28.1219 24.1334 28.4719V30H23.3365V28.5797C23.3365 28.4109 23.2912 28.2812 23.2006 28.1906C23.1131 28.0969 22.9912 28.05 22.835 28.05C22.6787 28.05 22.5553 28.0969 22.4647 28.1906C22.3771 28.2812 22.3334 28.4109 22.3334 28.5797V30H21.5365V28.5797C21.5365 28.4109 21.4912 28.2812 21.4006 28.1906C21.3131 28.0969 21.1912 28.05 21.035 28.05C20.8787 28.05 20.7553 28.0969 20.6647 28.1906C20.5771 28.2812 20.5334 28.4109 20.5334 28.5797V30H19.7318V27.3844H20.5334V27.7125C20.6146 27.6031 20.7209 27.5172 20.8522 27.4547C20.9834 27.3891 21.1319 27.3562 21.2975 27.3562C21.4943 27.3562 21.6693 27.3984 21.8225 27.4828C21.9787 27.5672 22.1006 27.6875 22.1881 27.8438C22.2787 27.7 22.4022 27.5828 22.5584 27.4922C22.7146 27.4016 22.885 27.3562 23.0693 27.3562ZM25.5565 27.3844V30H24.7549V27.3844H25.5565ZM25.7018 26.7328L24.5721 27.2063V26.6531L25.7018 26.1094V26.7328ZM27.7938 27.3562C28.1001 27.3562 28.3438 27.4562 28.525 27.6562C28.7094 27.8531 28.8016 28.125 28.8016 28.4719V30H28.0047V28.5797C28.0047 28.4047 27.9594 28.2688 27.8688 28.1719C27.7782 28.075 27.6563 28.0266 27.5032 28.0266C27.3501 28.0266 27.2282 28.075 27.1375 28.1719C27.0469 28.2688 27.0016 28.4047 27.0016 28.5797V30H26.2V27.3844H27.0016V27.7312C27.0829 27.6156 27.1922 27.525 27.3297 27.4594C27.4672 27.3906 27.6219 27.3562 27.7938 27.3562ZM29.7617 27.1125C29.6211 27.1125 29.5055 27.0719 29.4149 26.9906C29.3274 26.9063 29.2836 26.8031 29.2836 26.6812C29.2836 26.5562 29.3274 26.4531 29.4149 26.3719C29.5055 26.2875 29.6211 26.2453 29.7617 26.2453C29.8993 26.2453 30.0118 26.2875 30.0992 26.3719C30.1899 26.4531 30.2352 26.5562 30.2352 26.6812C30.2352 26.8031 30.1899 26.9063 30.0992 26.9906C30.0118 27.0719 29.8993 27.1125 29.7617 27.1125ZM30.1602 27.3844V30H29.3586V27.3844H30.1602ZM31.9317 30.0375C31.6755 30.0375 31.4442 29.9828 31.2379 29.8734C31.0348 29.7641 30.8739 29.6078 30.7551 29.4047C30.6395 29.2016 30.5817 28.9641 30.5817 28.6922C30.5817 28.4235 30.6411 28.1875 30.7598 27.9844C30.8786 27.7781 31.041 27.6203 31.2473 27.5109C31.4535 27.4016 31.6848 27.3469 31.941 27.3469C32.1973 27.3469 32.4285 27.4016 32.6348 27.5109C32.841 27.6203 33.0036 27.7781 33.1223 27.9844C33.2411 28.1875 33.3004 28.4235 33.3004 28.6922C33.3004 28.9609 33.2395 29.1984 33.1176 29.4047C32.9989 29.6078 32.8348 29.7641 32.6254 29.8734C32.4192 29.9828 32.1879 30.0375 31.9317 30.0375ZM31.9317 29.3437C32.0848 29.3437 32.2145 29.2875 32.3207 29.175C32.4301 29.0625 32.4848 28.9016 32.4848 28.6922C32.4848 28.4828 32.4317 28.3219 32.3254 28.2094C32.2223 28.0969 32.0942 28.0406 31.941 28.0406C31.7848 28.0406 31.6551 28.0969 31.552 28.2094C31.4489 28.3187 31.3973 28.4797 31.3973 28.6922C31.3973 28.9016 31.4473 29.0625 31.5473 29.175C31.6504 29.2875 31.7786 29.3437 31.9317 29.3437Z" fill="#F8FBF3"/>
<path d="M13.5977 24.8437V15.2983H17.1773C17.9106 15.2983 18.5258 15.4257 19.023 15.6805C19.5232 15.9353 19.9008 16.2926 20.1556 16.7525C20.4135 17.2093 20.5425 17.7421 20.5425 18.3511C20.5425 18.9633 20.412 19.4946 20.1509 19.9452C19.893 20.3926 19.5124 20.7391 19.009 20.9845C18.5056 21.2269 17.8873 21.3481 17.154 21.3481H14.6045V19.9125H16.9209C17.3497 19.9125 17.7008 19.8535 17.9743 19.7354C18.2477 19.6142 18.4497 19.4387 18.5802 19.2088C18.7138 18.9757 18.7806 18.6899 18.7806 18.3511C18.7806 18.0125 18.7138 17.7235 18.5802 17.4842C18.4466 17.2419 18.2431 17.0586 17.9696 16.9342C17.6962 16.8068 17.3435 16.7432 16.9116 16.7432H15.3269V24.8437H13.5977ZM18.5289 20.5185L20.892 24.8437H18.9624L16.6413 20.5185H18.5289ZM21.0841 15.2983H23.2002L26.034 22.215H26.1458L28.9796 15.2983H31.0957V24.8437H29.4364V18.2859H29.3478L26.7098 24.8158H25.47L22.832 18.2719H22.7434V24.8437H21.0841V15.2983Z" fill="#FEFFFE"/>
</g>
<defs>
<clipPath id="clip0_4_177">
<rect width="45" height="45" fill="white"/>
</clipPath>
</defs>
</svg>
