<svg width="17" height="17" viewBox="0 0 17 17" fill="none" xmlns="http://www.w3.org/2000/svg">
<path d="M8.33333 10.7917L10.875 12.7292C11 12.8264 11.1215 12.8299 11.2396 12.7396C11.3576 12.6493 11.3958 12.5278 11.3542 12.375L10.3333 9.22917L12.8542 7.4375C12.9792 7.34028 13.0208 7.22222 12.9792 7.08333C12.9375 6.94444 12.8403 6.875 12.6875 6.875H9.60417L8.625 3.625C8.58333 3.47222 8.48958 3.39583 8.34375 3.39583C8.19792 3.39583 8.09722 3.47222 8.04167 3.625L7.04167 6.875H3.95833C3.80556 6.875 3.70833 6.94444 3.66667 7.08333C3.625 7.22222 3.66667 7.34028 3.79167 7.4375L6.3125 9.22917L5.3125 12.3958C5.27083 12.5486 5.30903 12.6667 5.42708 12.75C5.54514 12.8333 5.66667 12.8264 5.79167 12.7292L8.33333 10.7917ZM8.33333 16.6667C7.15278 16.6667 6.05556 16.4549 5.04167 16.0312C4.02778 15.6076 3.14583 15.0208 2.39583 14.2708C1.64583 13.5208 1.05903 12.6389 0.635417 11.625C0.211806 10.6111 0 9.51389 0 8.33333C0 7.16667 0.211806 6.07639 0.635417 5.0625C1.05903 4.04861 1.64583 3.16667 2.39583 2.41667C3.14583 1.66667 4.02778 1.07639 5.04167 0.645833C6.05556 0.215278 7.15278 0 8.33333 0C9.5 0 10.5903 0.215278 11.6042 0.645833C12.6181 1.07639 13.5 1.66667 14.25 2.41667C15 3.16667 15.5903 4.04861 16.0208 5.0625C16.4514 6.07639 16.6667 7.16667 16.6667 8.33333C16.6667 9.51389 16.4514 10.6111 16.0208 11.625C15.5903 12.6389 15 13.5208 14.25 14.2708C13.5 15.0208 12.6181 15.6076 11.6042 16.0312C10.5903 16.4549 9.5 16.6667 8.33333 16.6667ZM8.33333 15.4167C10.3472 15.4167 12.0312 14.7396 13.3854 13.3854C14.7396 12.0312 15.4167 10.3472 15.4167 8.33333C15.4167 6.31944 14.7396 4.63542 13.3854 3.28125C12.0312 1.92708 10.3472 1.25 8.33333 1.25C6.31944 1.25 4.63542 1.92708 3.28125 3.28125C1.92708 4.63542 1.25 6.31944 1.25 8.33333C1.25 10.3472 1.92708 12.0312 3.28125 13.3854C4.63542 14.7396 6.31944 15.4167 8.33333 15.4167Z" fill="black"/>
</svg>
