<svg width="9" height="18" viewBox="0 0 9 18" fill="none" xmlns="http://www.w3.org/2000/svg">
<path d="M0 0H9V7.4925C9 7.8375 8.91513 8.15362 8.74539 8.44085C8.57565 8.72809 8.33802 8.95947 8.0325 9.135L4.86 10.98L5.445 13.1625H8.46L6.0075 14.985L6.9525 18L4.5 16.1775L2.025 18L2.97 14.985L0.5175 13.1625H3.5575L4.1175 10.98L0.9675 9.135C0.66198 8.95947 0.42435 8.72809 0.25461 8.44085C0.0848702 8.15362 0 7.8375 0 7.4925V0ZM1.35 1.35V7.4925C1.35 7.5975 1.38375 7.695 1.45125 7.785C1.51875 7.875 1.62 7.9575 1.755 8.0325L3.915 9.225V1.35H1.35ZM7.65 1.35H5.265V9.225L7.245 8.0325C7.38 7.9575 7.48125 7.875 7.54875 7.785C7.61625 7.695 7.65 7.5975 7.65 7.4925V1.35Z" fill="black"/>
</svg>
