<svg width="40" height="40" viewBox="0 0 40 40" fill="none" xmlns="http://www.w3.org/2000/svg">
<circle cx="20" cy="20" r="19.5" fill="white" stroke="#DCE8FF"/>
<g clip-path="url(#clip0_4_290)">
<path d="M22.1311 9.36584C21.4637 9.13303 20.7356 9 19.9924 9C17.8537 9 15.9274 10.0642 14.6381 11.7438L17.9447 14.7868L22.1311 9.36584Z" fill="#1A73E8"/>
<path d="M14.6381 11.7438C13.6219 13.0741 13 14.8035 13 16.6659C13 18.1126 13.2579 19.2767 13.6977 20.3243L17.9447 14.7869L14.6381 11.7438Z" fill="#EA4335"/>
<path d="M20.0076 13.7392C21.494 13.7392 22.6923 15.0529 22.6923 16.6825C22.6923 17.3976 22.4496 18.0627 22.0553 18.5782C22.0553 18.5782 24.1636 15.8178 26.2264 13.1406C25.377 11.3447 23.9057 9.98111 22.1311 9.36584L17.9447 14.7869C18.4453 14.155 19.1733 13.7392 20.0076 13.7392Z" fill="#4285F4"/>
<path d="M20.0076 19.6092C18.5211 19.6092 17.3229 18.2956 17.3229 16.6659C17.3229 15.9509 17.5504 15.2857 17.9447 14.7869L13.6977 20.3243C14.4258 22.0869 15.6392 23.517 16.883 25.2963L22.0553 18.5616C21.5547 19.2101 20.8267 19.6092 20.0076 19.6092Z" fill="#FBBC04"/>
<path d="M21.9642 27.1588C24.3001 23.1512 27.0152 21.3387 27.0152 16.6826C27.0152 15.4022 26.727 14.2049 26.2264 13.1406L16.883 25.2963C17.2774 25.8617 17.6869 26.5102 18.0813 27.1754C19.507 29.5866 19.1127 31.0167 20.0228 31.0167C20.9328 31.0167 20.5385 29.57 21.9642 27.1588Z" fill="#34A853"/>
</g>
<defs>
<clipPath id="clip0_4_290">
<rect width="14" height="22" fill="white" transform="translate(13 9)"/>
</clipPath>
</defs>
</svg>
