<svg width="40" height="40" viewBox="0 0 40 40" fill="none" xmlns="http://www.w3.org/2000/svg">
<circle cx="20" cy="20" r="20" fill="#C4C4C4"/>
<circle cx="20" cy="20" r="20" fill="url(#paint0_linear_4_274)"/>
<path fill-rule="evenodd" clip-rule="evenodd" d="M27.0813 22.1126C26.733 21.939 25.0203 21.1003 24.7009 20.9847C24.3816 20.869 24.1495 20.8111 23.9173 21.1582C23.685 21.5053 23.0174 22.2861 22.8142 22.5175C22.611 22.7489 22.4078 22.7778 22.0595 22.6042C21.7111 22.4308 20.5887 22.0647 19.2582 20.8835C18.2227 19.9643 17.5235 18.829 17.3203 18.4819C17.1171 18.1348 17.2987 17.9472 17.4731 17.7743C17.6297 17.6191 17.8214 17.3695 17.9956 17.167C18.1697 16.9646 18.2278 16.8199 18.3439 16.5886C18.46 16.3573 18.4019 16.1548 18.3149 15.9812C18.2278 15.8077 17.5311 14.1013 17.2408 13.4072C16.9581 12.7312 16.6709 12.8227 16.4571 12.8121C16.2541 12.802 16.0217 12.7999 15.7895 12.7999C15.5572 12.7999 15.1799 12.8867 14.8605 13.2337C14.5412 13.5807 13.6413 14.4195 13.6413 16.1259C13.6413 17.8322 14.8895 19.4808 15.0637 19.7122C15.2379 19.9436 17.5201 23.4452 21.0145 24.9469C21.8456 25.3041 22.4945 25.5174 23.0004 25.6772C23.8348 25.941 24.5943 25.9038 25.1945 25.8145C25.8637 25.715 27.2555 24.9758 27.5458 24.1661C27.836 23.3563 27.836 22.6621 27.7489 22.5175C27.6619 22.3729 27.4297 22.2861 27.0813 22.1126ZM20.7252 30.7495H20.7206C18.6413 30.7486 16.6019 30.1928 14.8228 29.142L14.3997 28.8921L10.014 30.037L11.1847 25.7815L10.9091 25.3453C9.74918 23.5092 9.13662 21.387 9.13746 19.208C9.13998 12.8497 14.3382 7.67668 20.7299 7.67668C23.8249 7.6779 26.7343 8.87906 28.922 11.0588C31.1098 13.2385 32.314 16.136 32.3128 19.2173C32.3102 25.5761 27.1121 30.7495 20.7252 30.7495ZM30.5871 9.40241C27.955 6.77986 24.4546 5.33489 20.7251 5.33337C13.0408 5.33337 6.78668 11.5571 6.78362 19.2071C6.78263 21.6525 7.42452 24.0396 8.64452 26.1435L6.66667 33.3334L14.0573 31.4041C16.0936 32.5094 18.3862 33.0918 20.7196 33.0928H20.7253C28.4089 33.0928 34.6635 26.8682 34.6667 19.2182C34.6681 15.5109 33.2194 12.025 30.5871 9.40241Z" fill="white"/>
<defs>
<linearGradient id="paint0_linear_4_274" x1="20" y1="40" x2="20" y2="7.62938e-05" gradientUnits="userSpaceOnUse">
<stop stop-color="#25CF43"/>
<stop offset="1" stop-color="#61FD7D"/>
</linearGradient>
</defs>
</svg>
